<?xml version="1.0" encoding="UTF-8" standalone="no"?>
<svg width="800" height="400" viewBox="0 0 800 400" version="1.1" xmlns="http://www.w3.org/2000/svg">
  <rect width="800" height="400" fill="#f8f9fa"/>
  <g transform="translate(400,200)">
    <g transform="scale(2.5)">
      <path d="M52.5,-58.5C67,-47.9,77.3,-29.7,78.6,-11.1C79.9,7.5,72.3,26.6,59.4,39.1C46.5,51.6,28.3,57.5,9.8,61C-8.7,64.6,-27.6,65.8,-43.3,57.6C-59.1,49.4,-71.7,31.7,-73.9,13.2C-76.1,-5.3,-67.9,-24.7,-55.1,-39C-42.3,-53.3,-25,-62.5,-6.2,-56.4C12.6,-50.3,38,-69.1,52.5,-58.5Z" 
         fill="#4e73df" fill-opacity="0.2"/>
    </g>
  </g>
  <text x="400" y="180" font-family="Arial, sans-serif" font-size="36" fill="#4e73df" text-anchor="middle">PharmaEvents</text>
  <text x="400" y="230" font-family="Arial, sans-serif" font-size="20" fill="#5a5c69" text-anchor="middle">Event Image</text>
  <g transform="translate(400,300)">
    <g transform="scale(1.5)">
      <path d="M0,-20 L4.7,-6.2 L19.4,-6.2 L7.4,2.4 L12.1,16.2 L0,7.6 L-12.1,16.2 L-7.4,2.4 L-19.4,-6.2 L-4.7,-6.2 Z" 
         fill="#4e73df" fill-opacity="0.6"/>
    </g>
  </g>
</svg>